# xmcd CD database file
#
# Track frame offsets:
#	150
#	21627
#	33056
#	46363
#	62427
#	80193
#	95973
#	103309
#	117612
#	127032
#	145286
#	169216
#	186275
#	204386
#	223232
#	238267
#	259060
#	277385
#	291472
#	298767
#	309279
#	319221
#	325899
#	340862
#	350198
#
# Disc length: 4792 seconds
#
# Revision: 0
# Processed by: cddbd v1.5.2PL0 Copyright (c) Steve Scherf et al.
# Submitted via: CDex 1.70beta2
#
DISCID=b112b619
DTITLE=Mayck e Lyan -  (Só Modão - Vol. II)
DYEAR=2006
DGENRE=Sertanejo
TTITLE0=Os Amantes
TTITLE1=O Campeão
TTITLE2=Pagode em Brasília
TTITLE3=Minha Homenagem
TTITLE4=A Volta
TTITLE5=Disparada
TTITLE6=Beber Veneno
TTITLE7=Amanheceu, Peguei a Viola
TTITLE8=Pagode
TTITLE9=Cobra Venenosa
TTITLE10=Dia de Visita
TTITLE11=Linha de Frente
TTITLE12=Sempre Foi Assim
TTITLE13=Súplica Cearense
TTITLE14=É Isso Que o Povo Quer
TTITLE15=Vaca Estrela e Boi Fubá
TTITLE16=Asa Branca
TTITLE17=Violeiro Sem Viola
TTITLE18=Cara de Boi
TTITLE19=Mulher Chorona
TTITLE20=Saudade da Minha Terra
TTITLE21=Só dá Você na Minha Vida
TTITLE22=Frio da Madrugada
TTITLE23=Peão Apaixonado
TTITLE24=Sonho Por Sonho
EXTD=YEAR: 2006
EXTT0=
EXTT1=
EXTT2=
EXTT3=
EXTT4=
EXTT5=
EXTT6=
EXTT7=
EXTT8=
EXTT9=
EXTT10=
EXTT11=
EXTT12=
EXTT13=
EXTT14=
EXTT15=
EXTT16=
EXTT17=
EXTT18=
EXTT19=
EXTT20=
EXTT21=
EXTT22=
EXTT23=
EXTT24=
PLAYORDER=
